<mxfile host="app.diagrams.net" agent="Mozilla/5.0 (Windows NT 10.0; Win64; x64) AppleWebKit/537.36 (KHTML, like Gecko) Chrome/130.0.0.0 Safari/537.36" version="24.8.4">
  <diagram name="Page-1" id="58cdce13-f638-feb5-8d6f-7d28b1aa9fa0">
    <mxGraphModel dx="1354" dy="720" grid="1" gridSize="10" guides="1" tooltips="1" connect="1" arrows="1" fold="1" page="1" pageScale="1" pageWidth="1100" pageHeight="850" background="none" math="0" shadow="0">
      <root>
        <mxCell id="0" />
        <mxCell id="1" parent="0" />
        <mxCell id="2a3bc250acf0617d-7" value="Container" style="swimlane;whiteSpace=wrap;html=1;rounded=1;shadow=0;comic=0;labelBackgroundColor=none;strokeWidth=1;fontFamily=Verdana;fontSize=12;align=center;" parent="1" vertex="1">
          <mxGeometry x="95" y="495" width="930" height="200" as="geometry" />
        </mxCell>
        <mxCell id="2a3bc250acf0617d-8" value="frame" style="shape=umlFrame;whiteSpace=wrap;html=1;rounded=1;shadow=0;comic=0;labelBackgroundColor=none;strokeWidth=1;fontFamily=Verdana;fontSize=12;align=center;movable=0;resizable=0;rotatable=0;deletable=0;editable=0;locked=1;connectable=0;" parent="1" vertex="1">
          <mxGeometry x="30" y="35" width="1050" height="745" as="geometry" />
        </mxCell>
        <mxCell id="rXPRrIJQq8pKm5gRmvwo-5" style="edgeStyle=orthogonalEdgeStyle;rounded=0;orthogonalLoop=1;jettySize=auto;html=1;entryX=0;entryY=0.5;entryDx=0;entryDy=0;" edge="1" parent="1" source="rXPRrIJQq8pKm5gRmvwo-4" target="rXPRrIJQq8pKm5gRmvwo-6">
          <mxGeometry relative="1" as="geometry">
            <mxPoint x="270" y="105" as="targetPoint" />
          </mxGeometry>
        </mxCell>
        <mxCell id="rXPRrIJQq8pKm5gRmvwo-4" value="" style="ellipse;whiteSpace=wrap;html=1;aspect=fixed;fillColor=#f8cecc;strokeColor=#b85450;" vertex="1" parent="1">
          <mxGeometry x="110" y="80" width="50" height="50" as="geometry" />
        </mxCell>
        <mxCell id="rXPRrIJQq8pKm5gRmvwo-7" style="edgeStyle=orthogonalEdgeStyle;rounded=0;orthogonalLoop=1;jettySize=auto;html=1;" edge="1" parent="1">
          <mxGeometry relative="1" as="geometry">
            <mxPoint x="540" y="104" as="targetPoint" />
            <mxPoint x="380" y="103.13" as="sourcePoint" />
            <Array as="points">
              <mxPoint x="420" y="102.63" />
              <mxPoint x="520" y="103.63" />
            </Array>
          </mxGeometry>
        </mxCell>
        <mxCell id="rXPRrIJQq8pKm5gRmvwo-8" value="&lt;font style=&quot;vertical-align: inherit;&quot;&gt;&lt;font style=&quot;vertical-align: inherit;&quot;&gt;achei pokemom&lt;/font&gt;&lt;/font&gt;" style="edgeLabel;html=1;align=center;verticalAlign=middle;resizable=0;points=[];" vertex="1" connectable="0" parent="rXPRrIJQq8pKm5gRmvwo-7">
          <mxGeometry x="0.0987" y="-2" relative="1" as="geometry">
            <mxPoint x="-1" y="-17" as="offset" />
          </mxGeometry>
        </mxCell>
        <mxCell id="rXPRrIJQq8pKm5gRmvwo-6" value="&lt;font style=&quot;vertical-align: inherit;&quot;&gt;&lt;font style=&quot;vertical-align: inherit;&quot;&gt;Procurando pokemom&lt;/font&gt;&lt;/font&gt;" style="rounded=1;whiteSpace=wrap;html=1;" vertex="1" parent="1">
          <mxGeometry x="280" y="75" width="120" height="60" as="geometry" />
        </mxCell>
        <mxCell id="rXPRrIJQq8pKm5gRmvwo-23" style="edgeStyle=orthogonalEdgeStyle;rounded=0;orthogonalLoop=1;jettySize=auto;html=1;entryX=0.5;entryY=0;entryDx=0;entryDy=0;" edge="1" parent="1" source="rXPRrIJQq8pKm5gRmvwo-9" target="rXPRrIJQq8pKm5gRmvwo-22">
          <mxGeometry relative="1" as="geometry" />
        </mxCell>
        <mxCell id="rXPRrIJQq8pKm5gRmvwo-9" value="" style="rounded=0;whiteSpace=wrap;html=1;movable=1;resizable=1;rotatable=1;deletable=1;editable=1;locked=0;connectable=1;" vertex="1" parent="1">
          <mxGeometry x="540" y="60" width="200" height="165" as="geometry" />
        </mxCell>
        <mxCell id="rXPRrIJQq8pKm5gRmvwo-12" style="edgeStyle=orthogonalEdgeStyle;rounded=0;orthogonalLoop=1;jettySize=auto;html=1;entryX=0;entryY=0.5;entryDx=0;entryDy=0;" edge="1" parent="1" source="rXPRrIJQq8pKm5gRmvwo-10" target="rXPRrIJQq8pKm5gRmvwo-11">
          <mxGeometry relative="1" as="geometry" />
        </mxCell>
        <mxCell id="rXPRrIJQq8pKm5gRmvwo-10" value="" style="ellipse;whiteSpace=wrap;html=1;aspect=fixed;" vertex="1" parent="1">
          <mxGeometry x="550" y="70" width="20" height="20" as="geometry" />
        </mxCell>
        <mxCell id="rXPRrIJQq8pKm5gRmvwo-14" style="edgeStyle=orthogonalEdgeStyle;rounded=0;orthogonalLoop=1;jettySize=auto;html=1;entryX=0.5;entryY=0;entryDx=0;entryDy=0;" edge="1" parent="1" source="rXPRrIJQq8pKm5gRmvwo-11" target="rXPRrIJQq8pKm5gRmvwo-13">
          <mxGeometry relative="1" as="geometry" />
        </mxCell>
        <mxCell id="rXPRrIJQq8pKm5gRmvwo-11" value="batendo pokemom" style="rounded=1;whiteSpace=wrap;html=1;fontSize=11;" vertex="1" parent="1">
          <mxGeometry x="600" y="67.5" width="70" height="25" as="geometry" />
        </mxCell>
        <mxCell id="rXPRrIJQq8pKm5gRmvwo-15" style="edgeStyle=orthogonalEdgeStyle;rounded=0;orthogonalLoop=1;jettySize=auto;html=1;" edge="1" parent="1" source="rXPRrIJQq8pKm5gRmvwo-13">
          <mxGeometry relative="1" as="geometry">
            <mxPoint x="670" y="80" as="targetPoint" />
            <Array as="points">
              <mxPoint x="691" y="122" />
              <mxPoint x="691" y="80" />
            </Array>
          </mxGeometry>
        </mxCell>
        <mxCell id="rXPRrIJQq8pKm5gRmvwo-18" style="edgeStyle=orthogonalEdgeStyle;rounded=0;orthogonalLoop=1;jettySize=auto;html=1;entryX=0;entryY=0.5;entryDx=0;entryDy=0;" edge="1" parent="1" source="rXPRrIJQq8pKm5gRmvwo-13" target="rXPRrIJQq8pKm5gRmvwo-16">
          <mxGeometry relative="1" as="geometry">
            <mxPoint x="635" y="170" as="targetPoint" />
            <Array as="points">
              <mxPoint x="635" y="170" />
            </Array>
          </mxGeometry>
        </mxCell>
        <mxCell id="rXPRrIJQq8pKm5gRmvwo-13" value="" style="rhombus;whiteSpace=wrap;html=1;" vertex="1" parent="1">
          <mxGeometry x="621.5" y="108" width="27" height="27" as="geometry" />
        </mxCell>
        <mxCell id="rXPRrIJQq8pKm5gRmvwo-16" value="" style="ellipse;whiteSpace=wrap;html=1;aspect=fixed;" vertex="1" parent="1">
          <mxGeometry x="705" y="160" width="20" height="20" as="geometry" />
        </mxCell>
        <mxCell id="rXPRrIJQq8pKm5gRmvwo-17" value="" style="ellipse;whiteSpace=wrap;html=1;aspect=fixed;" vertex="1" parent="1">
          <mxGeometry x="710" y="165" width="10" height="10" as="geometry" />
        </mxCell>
        <mxCell id="rXPRrIJQq8pKm5gRmvwo-19" value="vivo" style="text;html=1;align=center;verticalAlign=middle;whiteSpace=wrap;rounded=0;fontSize=10;" vertex="1" parent="1">
          <mxGeometry x="660" y="108" width="30" height="13.5" as="geometry" />
        </mxCell>
        <mxCell id="rXPRrIJQq8pKm5gRmvwo-21" value="desmaiado" style="text;html=1;align=center;verticalAlign=middle;whiteSpace=wrap;rounded=0;fontSize=11;" vertex="1" parent="1">
          <mxGeometry x="640" y="155" width="60" height="10" as="geometry" />
        </mxCell>
        <mxCell id="rXPRrIJQq8pKm5gRmvwo-25" style="edgeStyle=orthogonalEdgeStyle;rounded=0;orthogonalLoop=1;jettySize=auto;html=1;" edge="1" parent="1" source="rXPRrIJQq8pKm5gRmvwo-22">
          <mxGeometry relative="1" as="geometry">
            <mxPoint x="760" y="300" as="targetPoint" />
          </mxGeometry>
        </mxCell>
        <mxCell id="rXPRrIJQq8pKm5gRmvwo-27" style="edgeStyle=orthogonalEdgeStyle;rounded=0;orthogonalLoop=1;jettySize=auto;html=1;entryX=0.5;entryY=0;entryDx=0;entryDy=0;" edge="1" parent="1" source="rXPRrIJQq8pKm5gRmvwo-22" target="rXPRrIJQq8pKm5gRmvwo-26">
          <mxGeometry relative="1" as="geometry" />
        </mxCell>
        <mxCell id="rXPRrIJQq8pKm5gRmvwo-22" value="" style="rhombus;whiteSpace=wrap;html=1;" vertex="1" parent="1">
          <mxGeometry x="610" y="270" width="60" height="60" as="geometry" />
        </mxCell>
        <mxCell id="rXPRrIJQq8pKm5gRmvwo-31" style="edgeStyle=orthogonalEdgeStyle;rounded=0;orthogonalLoop=1;jettySize=auto;html=1;entryX=0;entryY=0.5;entryDx=0;entryDy=0;" edge="1" parent="1" source="rXPRrIJQq8pKm5gRmvwo-24" target="rXPRrIJQq8pKm5gRmvwo-30">
          <mxGeometry relative="1" as="geometry" />
        </mxCell>
        <mxCell id="rXPRrIJQq8pKm5gRmvwo-24" value="usando pokebola" style="rounded=1;whiteSpace=wrap;html=1;" vertex="1" parent="1">
          <mxGeometry x="760" y="270" width="120" height="60" as="geometry" />
        </mxCell>
        <mxCell id="rXPRrIJQq8pKm5gRmvwo-29" style="edgeStyle=orthogonalEdgeStyle;rounded=0;orthogonalLoop=1;jettySize=auto;html=1;entryX=0;entryY=0.5;entryDx=0;entryDy=0;" edge="1" parent="1" source="rXPRrIJQq8pKm5gRmvwo-26" target="rXPRrIJQq8pKm5gRmvwo-28">
          <mxGeometry relative="1" as="geometry">
            <Array as="points">
              <mxPoint x="640" y="470" />
              <mxPoint x="820" y="470" />
              <mxPoint x="820" y="440" />
              <mxPoint x="820" y="440" />
            </Array>
          </mxGeometry>
        </mxCell>
        <mxCell id="rXPRrIJQq8pKm5gRmvwo-26" value="nÃ£o capturou" style="rounded=1;whiteSpace=wrap;html=1;" vertex="1" parent="1">
          <mxGeometry x="580" y="377.5" width="120" height="60" as="geometry" />
        </mxCell>
        <mxCell id="rXPRrIJQq8pKm5gRmvwo-28" value="" style="ellipse;html=1;shape=endState;fillColor=#000000;strokeColor=#ff0000;" vertex="1" parent="1">
          <mxGeometry x="840" y="400" width="30" height="30" as="geometry" />
        </mxCell>
        <mxCell id="rXPRrIJQq8pKm5gRmvwo-32" style="edgeStyle=orthogonalEdgeStyle;rounded=0;orthogonalLoop=1;jettySize=auto;html=1;entryX=0.5;entryY=0;entryDx=0;entryDy=0;" edge="1" parent="1" source="rXPRrIJQq8pKm5gRmvwo-30" target="rXPRrIJQq8pKm5gRmvwo-24">
          <mxGeometry relative="1" as="geometry">
            <mxPoint x="820" y="200" as="targetPoint" />
            <Array as="points">
              <mxPoint x="985" y="200" />
              <mxPoint x="820" y="200" />
            </Array>
          </mxGeometry>
        </mxCell>
        <mxCell id="rXPRrIJQq8pKm5gRmvwo-42" value="falhou" style="edgeLabel;html=1;align=center;verticalAlign=middle;resizable=0;points=[];" vertex="1" connectable="0" parent="rXPRrIJQq8pKm5gRmvwo-32">
          <mxGeometry x="0.0223" relative="1" as="geometry">
            <mxPoint as="offset" />
          </mxGeometry>
        </mxCell>
        <mxCell id="rXPRrIJQq8pKm5gRmvwo-35" style="edgeStyle=orthogonalEdgeStyle;rounded=0;orthogonalLoop=1;jettySize=auto;html=1;entryX=0.5;entryY=0;entryDx=0;entryDy=0;" edge="1" parent="1" source="rXPRrIJQq8pKm5gRmvwo-30" target="rXPRrIJQq8pKm5gRmvwo-34">
          <mxGeometry relative="1" as="geometry" />
        </mxCell>
        <mxCell id="rXPRrIJQq8pKm5gRmvwo-30" value="" style="rhombus;whiteSpace=wrap;html=1;" vertex="1" parent="1">
          <mxGeometry x="955" y="270" width="60" height="60" as="geometry" />
        </mxCell>
        <mxCell id="rXPRrIJQq8pKm5gRmvwo-36" style="edgeStyle=orthogonalEdgeStyle;rounded=0;orthogonalLoop=1;jettySize=auto;html=1;entryX=1;entryY=0.5;entryDx=0;entryDy=0;" edge="1" parent="1" source="rXPRrIJQq8pKm5gRmvwo-34" target="rXPRrIJQq8pKm5gRmvwo-28">
          <mxGeometry relative="1" as="geometry" />
        </mxCell>
        <mxCell id="rXPRrIJQq8pKm5gRmvwo-34" value="capturou" style="rounded=1;whiteSpace=wrap;html=1;" vertex="1" parent="1">
          <mxGeometry x="925" y="385" width="120" height="60" as="geometry" />
        </mxCell>
        <mxCell id="rXPRrIJQq8pKm5gRmvwo-37" value="luta pokemom" style="text;html=1;align=center;verticalAlign=middle;whiteSpace=wrap;rounded=0;" vertex="1" parent="1">
          <mxGeometry x="540" y="35" width="80" height="30" as="geometry" />
        </mxCell>
        <mxCell id="rXPRrIJQq8pKm5gRmvwo-39" value="sai da luta" style="text;html=1;align=center;verticalAlign=middle;whiteSpace=wrap;rounded=0;" vertex="1" parent="1">
          <mxGeometry x="640" y="230" width="60" height="30" as="geometry" />
        </mxCell>
        <mxCell id="rXPRrIJQq8pKm5gRmvwo-40" value="desmaiado" style="text;html=1;align=center;verticalAlign=middle;whiteSpace=wrap;rounded=0;" vertex="1" parent="1">
          <mxGeometry x="640" y="340" width="60" height="30" as="geometry" />
        </mxCell>
        <mxCell id="rXPRrIJQq8pKm5gRmvwo-41" value="vivo" style="text;html=1;align=center;verticalAlign=middle;whiteSpace=wrap;rounded=0;" vertex="1" parent="1">
          <mxGeometry x="680" y="280" width="60" height="30" as="geometry" />
        </mxCell>
      </root>
    </mxGraphModel>
  </diagram>
</mxfile>
